<svg width="130" height="121" viewBox="0 0 130 121" fill="none" xmlns="http://www.w3.org/2000/svg">
<g filter="url(#filter0_d_35_98)">
<path d="M1 0.99292L11.5882 108.361L61 120.993L110.412 108.361C113.941 72.5824 117.471 36.7719 121 0.99292H1ZM88.3882 89.414L60.9647 95.7298L33.5765 89.414L32.2 73.6245H45.8235L46.4588 79.9403L61 81.8982L75.7176 79.9403L77.1647 64.1508H31.3176L34.7059 26.2561H89.2353L91.7059 45.2034H78.6471L77.8353 38.8877H48.3294L47.2 51.5192H91.8824L88.3882 89.414Z" fill="#E6AF2E" fill-opacity="0.9" shape-rendering="crispEdges"/>
<path d="M88.5566 90.1448L89.0853 90.0231L89.1351 89.4828L92.6292 51.5881L92.7047 50.7692H91.8824H48.0201L49.0153 39.6377H77.1755L77.9032 45.2991L77.9873 45.9534H78.6471H91.7059H92.56L92.4496 45.1065L89.979 26.1591L89.8939 25.5061H89.2353H34.7059H34.0199L33.9589 26.1893L30.5706 64.084L30.4976 64.9008H31.3176H76.3428L75.0254 79.2758L61.0006 81.1415L47.1458 79.276L46.5698 73.5494L46.5019 72.8745H45.8235H32.2H31.3818L31.4528 73.6896L32.8293 89.4791L32.8767 90.0223L33.4079 90.1448L60.7962 96.4606L60.9646 96.4994L61.133 96.4606L88.5566 90.1448ZM12.283 107.765L1.8276 1.74292H120.172C118.435 19.3581 116.697 36.9808 114.96 54.6035L114.918 55.0226C113.184 72.6059 111.451 90.1892 109.717 107.765L61 120.219L12.283 107.765Z" stroke="#E8C676" stroke-opacity="0.7" stroke-width="1.5" shape-rendering="crispEdges"/>
</g>
<defs>
<filter id="filter0_d_35_98" x="0" y="-0.00708008" width="130" height="130" filterUnits="userSpaceOnUse" color-interpolation-filters="sRGB">
<feFlood flood-opacity="0" result="BackgroundImageFix"/>
<feColorMatrix in="SourceAlpha" type="matrix" values="0 0 0 0 0 0 0 0 0 0 0 0 0 0 0 0 0 0 127 0" result="hardAlpha"/>
<feOffset dx="4" dy="4"/>
<feGaussianBlur stdDeviation="2.5"/>
<feComposite in2="hardAlpha" operator="out"/>
<feColorMatrix type="matrix" values="0 0 0 0 0.0117647 0 0 0 0 0.027451 0 0 0 0 0.117647 0 0 0 0.7 0"/>
<feBlend mode="normal" in2="BackgroundImageFix" result="effect1_dropShadow_35_98"/>
<feBlend mode="normal" in="SourceGraphic" in2="effect1_dropShadow_35_98" result="shape"/>
</filter>
</defs>
</svg>
