<svg width="130" height="121" viewBox="0 0 130 121" fill="none" xmlns="http://www.w3.org/2000/svg">
<g filter="url(#filter0_d_35_101)">
<path d="M117.851 53.4012L68.5917 4.1417C66.5027 2.04251 63.7514 0.99292 61 0.99292C58.2486 0.99292 55.4973 2.04251 53.4083 4.1417L43.6664 13.8835L55.7215 25.9386C59.7262 23.5846 64.9436 24.0941 68.3777 27.5282C71.8118 30.9623 72.3111 36.1797 69.9572 40.1743L81.8084 52.0255C85.8132 49.6716 91.0306 50.1811 94.4647 53.6152C98.5408 57.6913 98.5408 64.2946 94.4647 68.3706C90.3886 72.4467 83.7853 72.4467 79.7092 68.3706C76.2751 64.9365 75.7656 59.7191 78.1196 55.7144L66.2683 43.8632C65.4226 44.3625 64.536 44.7293 63.6087 44.9637V77.0119C68.1026 78.1736 71.4348 82.2191 71.4348 87.0799C71.4348 92.8475 66.7677 97.5147 61 97.5147C55.2323 97.5147 50.5652 92.8475 50.5652 87.0799C50.5652 82.2191 53.8974 78.1736 58.3913 77.0119V44.9637C56.6488 44.5153 54.9878 43.6492 53.6223 42.2837C50.1882 38.8496 49.6889 33.6322 52.0428 29.6376L39.9776 17.5724L4.14878 53.4012C-0.0495924 57.5894 -0.0495924 64.3965 4.14878 68.5846L53.4083 117.844C55.4973 119.943 58.2486 120.993 61 120.993C63.7514 120.993 66.5027 119.943 68.5917 117.844L117.851 68.5846C122.05 64.3965 122.05 57.5894 117.851 53.4012Z" fill="#E6AF2E" fill-opacity="0.9" shape-rendering="crispEdges"/>
<path d="M117.321 53.9315L117.322 53.9322C121.226 57.8273 121.226 64.1585 117.322 68.0537L117.321 68.0543L68.0614 117.314L68.0601 117.315C66.1181 119.267 63.5609 120.243 61 120.243C58.4391 120.243 55.8819 119.267 53.9399 117.315L53.9386 117.314L4.67911 68.0543L4.67846 68.0537C0.773846 64.1585 0.773846 57.8273 4.67846 53.9322L4.67911 53.9315L39.9776 18.6331L51.1129 29.7684C48.9227 33.9723 49.5519 39.2739 53.092 42.814C54.4135 44.1355 55.988 45.0183 57.6413 45.5305V76.4469C53.1152 77.8724 49.8152 82.0698 49.8152 87.0799C49.8152 93.2618 54.8181 98.2647 61 98.2647C67.1819 98.2647 72.1848 93.2618 72.1848 87.0799C72.1848 82.0698 68.8848 77.8724 64.3587 76.4469V45.531C64.9698 45.34 65.563 45.094 66.138 44.7935L77.1901 55.8456C74.9999 60.0591 75.639 65.3611 79.1789 68.901C83.5479 73.27 90.626 73.27 94.995 68.901C99.364 64.532 99.364 57.4539 94.995 53.0849C91.4551 49.545 86.1532 48.9058 81.9396 51.0961L70.8871 40.0435C73.0773 35.8397 72.4482 30.538 68.9081 26.9979C65.3682 23.458 60.0662 22.8189 55.8527 25.0091L44.7271 13.8835L53.9386 4.67203L53.9399 4.67073C55.8819 2.71932 58.4391 1.74292 61 1.74292C63.5609 1.74292 66.1181 2.71932 68.0601 4.67074L68.0614 4.67203L117.321 53.9315Z" stroke="#E8C676" stroke-opacity="0.7" stroke-width="1.5" shape-rendering="crispEdges"/>
</g>
<defs>
<filter id="filter0_d_35_101" x="0" y="-0.00708008" width="130" height="130" filterUnits="userSpaceOnUse" color-interpolation-filters="sRGB">
<feFlood flood-opacity="0" result="BackgroundImageFix"/>
<feColorMatrix in="SourceAlpha" type="matrix" values="0 0 0 0 0 0 0 0 0 0 0 0 0 0 0 0 0 0 127 0" result="hardAlpha"/>
<feOffset dx="4" dy="4"/>
<feGaussianBlur stdDeviation="2.5"/>
<feComposite in2="hardAlpha" operator="out"/>
<feColorMatrix type="matrix" values="0 0 0 0 0.0117647 0 0 0 0 0.027451 0 0 0 0 0.117647 0 0 0 0.7 0"/>
<feBlend mode="normal" in2="BackgroundImageFix" result="effect1_dropShadow_35_101"/>
<feBlend mode="normal" in="SourceGraphic" in2="effect1_dropShadow_35_101" result="shape"/>
</filter>
</defs>
</svg>
