<svg width="130" height="121" viewBox="0 0 130 121" fill="none" xmlns="http://www.w3.org/2000/svg">
<g filter="url(#filter0_d_35_100)">
<path d="M54.2648 1.4213C26.6088 4.51587 4.3637 27.4157 1.35761 55.2667C-1.64848 84.3556 14.5844 110.35 39.2343 120.253C41.038 120.872 42.8417 119.634 42.8417 117.158V107.255C42.8417 107.255 40.4368 107.874 37.4307 107.874C29.0136 107.874 25.4063 100.447 24.8051 96.115C24.2039 93.6393 23.0015 91.7826 21.1978 89.9259C19.3942 89.307 18.7929 89.307 18.7929 88.688C18.7929 87.4502 20.5966 87.4502 21.1978 87.4502C24.8051 87.4502 27.8112 91.7826 29.0136 93.6393C32.0197 98.5906 35.627 99.8285 37.4307 99.8285C39.8356 99.8285 41.6392 99.2096 42.8417 98.5906C43.4429 94.2583 45.2465 89.9259 48.8538 87.4502C35.0258 84.3556 24.8051 76.3098 24.8051 62.6937C24.8051 55.8856 27.8112 49.0776 32.0197 44.1263C31.4185 42.8885 30.8173 39.7939 30.8173 35.4615C30.8173 32.9859 30.8173 29.2724 32.621 25.5589C32.621 25.5589 41.038 25.5589 49.4551 33.6048C52.4611 32.367 56.6697 31.748 60.8782 31.748C65.0867 31.748 69.2952 32.367 72.9026 33.6048C80.7184 25.5589 89.7367 25.5589 89.7367 25.5589C90.9391 29.2724 90.9391 32.9859 90.9391 35.4615C90.9391 40.4128 90.3379 42.8885 89.7367 44.1263C93.9452 49.0776 96.9513 55.2667 96.9513 62.6937C96.9513 76.3098 86.7306 84.3556 72.9026 87.4502C76.5099 90.5448 78.9147 96.115 78.9147 101.685V117.777C78.9147 119.634 80.7184 121.49 83.1233 120.872C105.368 111.588 121 89.307 121 63.3126C121 26.1778 90.3379 -2.91109 54.2648 1.4213Z" fill="#E6AF2E" fill-opacity="0.9" shape-rendering="crispEdges"/>
<path d="M54.3482 2.16668L54.3542 2.16595C89.9428 -2.10825 120.25 26.5883 120.25 63.3126C120.25 88.9807 104.828 110.976 82.8866 120.158C81.0277 120.605 79.6647 119.18 79.6647 117.777V101.685C79.6647 96.468 77.6298 91.2221 74.4216 87.8602C80.861 86.2407 86.5065 83.5072 90.631 79.5593C95.0592 75.3208 97.7013 69.7109 97.7013 62.6937C97.7013 55.2297 94.748 48.9948 90.6105 44.0009C91.2011 42.5184 91.6891 39.9529 91.6891 35.4615V35.4355C91.6891 32.9649 91.6891 29.1541 90.4502 25.3279L90.2821 24.8089H89.7367V25.5589C89.7367 24.8089 89.7363 24.8089 89.7359 24.8089L89.7349 24.8089L89.7324 24.8089L89.7248 24.809L89.6999 24.8092C89.679 24.8095 89.6495 24.8101 89.6118 24.8112C89.5364 24.8134 89.4279 24.8176 89.289 24.826C89.0111 24.8426 88.611 24.8756 88.1088 24.9409C87.1048 25.0713 85.6903 25.3311 84.0277 25.8485C80.7929 26.8553 76.6137 28.8394 72.697 32.7454C69.1023 31.5768 64.9829 30.998 60.8782 30.998C56.8168 30.998 52.7083 31.5648 49.623 32.7323C45.4383 28.8393 41.2711 26.8575 38.1093 25.85C36.4853 25.3326 35.1274 25.0724 34.1691 24.9415C33.6899 24.8761 33.3102 24.8429 33.0468 24.8261C32.915 24.8177 32.8123 24.8134 32.7406 24.8112C32.7241 24.8107 32.7093 24.8103 32.6961 24.81C32.6807 24.8097 32.6675 24.8094 32.6567 24.8092L32.6327 24.809L32.6253 24.8089L32.6227 24.8089L32.6217 24.8089C32.6213 24.8089 32.621 24.8089 32.621 25.5589V24.8089H32.1514L31.9463 25.2312C30.0672 29.1001 30.0673 32.9572 30.0673 35.4311V35.4615C30.0673 37.661 30.2198 39.5561 30.4517 41.0681C30.6375 42.2795 30.8792 43.2781 31.1503 43.9966C27.0045 49.0258 24.0551 55.8395 24.0551 62.6937C24.0551 69.7109 26.6972 75.3208 31.1254 79.5593C35.2158 83.4746 40.8022 86.1955 47.1755 87.8199C44.2666 90.4365 42.7479 94.2902 42.1571 98.0908C41.054 98.6033 39.4804 99.0785 37.4307 99.0785C35.9341 99.0785 32.55 98.0188 29.6547 93.2501L29.6491 93.2408L29.6432 93.2317C29.035 92.2925 27.9458 90.6869 26.5304 89.3108C25.1326 87.9518 23.2979 86.7002 21.1978 86.7002H21.1787C20.8786 86.7001 20.189 86.6999 19.5583 86.8854C19.2323 86.9813 18.8597 87.1437 18.5605 87.4355C18.2404 87.7477 18.0429 88.1721 18.0429 88.688C18.0429 88.9791 18.1196 89.2852 18.3504 89.5492C18.5519 89.7796 18.8157 89.9108 19.0334 90.0005C19.2582 90.093 19.537 90.1805 19.8378 90.2744L19.9029 90.2947C20.158 90.3742 20.4484 90.4647 20.7842 90.5775C22.4412 92.3112 23.5167 94.0165 24.0676 96.2565C24.392 98.5396 25.4934 101.597 27.6144 104.104C29.7651 106.646 32.9711 108.624 37.4307 108.624C38.9831 108.624 40.3764 108.465 41.3808 108.306C41.6456 108.264 41.8839 108.222 42.0917 108.183V117.158C42.0917 118.212 41.7124 118.907 41.2456 119.28C40.7856 119.649 40.162 119.772 39.4948 119.549C15.174 109.768 -0.867463 84.1013 2.10347 55.3455C5.07374 27.8337 27.0528 5.22086 54.3482 2.16668Z" stroke="#E8C676" stroke-opacity="0.7" stroke-width="1.5" shape-rendering="crispEdges"/>
</g>
<defs>
<filter id="filter0_d_35_100" x="0" y="-0.00708008" width="130" height="130" filterUnits="userSpaceOnUse" color-interpolation-filters="sRGB">
<feFlood flood-opacity="0" result="BackgroundImageFix"/>
<feColorMatrix in="SourceAlpha" type="matrix" values="0 0 0 0 0 0 0 0 0 0 0 0 0 0 0 0 0 0 127 0" result="hardAlpha"/>
<feOffset dx="4" dy="4"/>
<feGaussianBlur stdDeviation="2.5"/>
<feComposite in2="hardAlpha" operator="out"/>
<feColorMatrix type="matrix" values="0 0 0 0 0.0117647 0 0 0 0 0.027451 0 0 0 0 0.117647 0 0 0 1 0"/>
<feBlend mode="normal" in2="BackgroundImageFix" result="effect1_dropShadow_35_100"/>
<feBlend mode="normal" in="SourceGraphic" in2="effect1_dropShadow_35_100" result="shape"/>
</filter>
</defs>
</svg>
