<svg width="130" height="121" viewBox="0 0 130 121" fill="none" xmlns="http://www.w3.org/2000/svg">
<g filter="url(#filter0_d_35_97)">
<path fill-rule="evenodd" clip-rule="evenodd" d="M121 0.99292L110.412 108.361L61 120.993L11.5882 108.361L1 0.99292H121ZM32.0616 70.4666H46.1792L46.5239 78.3613L61 82.7775L75.4761 78.3613L76.5239 64.1508H45.4761L44.7592 51.5192H77.2408L78.2886 38.8877H29.5938L28.5322 26.2561H93.1232L91.3585 51.5192L88.8768 87.835L61 96.0505L33.1232 87.835L32.0616 70.4666Z" fill="#E6AF2E" fill-opacity="0.9" shape-rendering="crispEdges"/>
<path d="M32.0616 69.7166H31.2643L31.313 70.5124L32.3746 87.8808L32.4066 88.4058L32.9111 88.5544L60.788 96.7699L61 96.8324L61.212 96.7699L89.0889 88.5544L89.5895 88.4069L89.6251 87.8862L92.1066 51.5715L92.1067 51.5704L93.8713 26.3083L93.9274 25.5061H93.1232H28.5322H27.7165L27.7848 26.3189L28.8464 38.9505L28.9041 39.6377H29.5938H77.4738L76.5504 50.7692H44.7592H43.9654L44.0104 51.5617L44.7273 64.1933L44.7675 64.9008H45.4761H75.7166L74.7659 77.7939L61 81.9933L47.25 77.7987L46.9285 70.4339L46.8972 69.7166H46.1792H32.0616ZM1.8276 1.74292H120.172L109.717 107.765L61 120.219L12.283 107.765L1.8276 1.74292Z" stroke="#E8C676" stroke-opacity="0.7" stroke-width="1.5" shape-rendering="crispEdges"/>
</g>
<defs>
<filter id="filter0_d_35_97" x="0" y="-0.00708008" width="130" height="130" filterUnits="userSpaceOnUse" color-interpolation-filters="sRGB">
<feFlood flood-opacity="0" result="BackgroundImageFix"/>
<feColorMatrix in="SourceAlpha" type="matrix" values="0 0 0 0 0 0 0 0 0 0 0 0 0 0 0 0 0 0 127 0" result="hardAlpha"/>
<feOffset dx="4" dy="4"/>
<feGaussianBlur stdDeviation="2.5"/>
<feComposite in2="hardAlpha" operator="out"/>
<feColorMatrix type="matrix" values="0 0 0 0 0.0117647 0 0 0 0 0.027451 0 0 0 0 0.117647 0 0 0 0.7 0"/>
<feBlend mode="normal" in2="BackgroundImageFix" result="effect1_dropShadow_35_97"/>
<feBlend mode="normal" in="SourceGraphic" in2="effect1_dropShadow_35_97" result="shape"/>
</filter>
</defs>
</svg>
