<svg width="130" height="121" viewBox="0 0 130 121" fill="none" xmlns="http://www.w3.org/2000/svg">
<g filter="url(#filter0_d_35_99)">
<path d="M120.235 1.84075C119.679 1.30075 118.899 0.99292 118.078 0.99292H3.9217C3.1007 0.99292 2.3206 1.30075 1.76548 1.84075C1.21036 2.38075 0.938638 3.10596 1.01168 3.83379L11.2961 106.687C11.4042 107.762 12.2427 108.667 13.4055 108.964L60.182 120.894C60.442 120.959 60.7137 120.993 60.9825 120.993C61.2513 120.993 61.523 120.959 61.7831 120.894L108.6 108.964C109.763 108.667 110.602 107.762 110.71 106.687L120.988 3.83379C121.061 3.10596 120.787 2.38075 120.235 1.84075ZM23.0179 71.4381L43.4698 76.5042V24.4712H55.1566V92.2973L23.0179 84.3381V71.4381ZM99.1399 53.1668L96.0605 85.1234L66.8434 92.2973V80.2947L86.5649 75.4555L87.2953 65.6729L66.8434 68.819V24.4712H101.904L100.896 34.906H78.5302V55.7755L99.1399 53.1668Z" fill="#E6AF2E" fill-opacity="0.9" shape-rendering="crispEdges"/>
<path d="M1.75793 3.7589L1.75796 3.75917L12.0423 106.612C12.1145 107.33 12.6887 108.007 13.5909 108.237L1.75793 3.7589ZM1.75793 3.7589C1.70895 3.2708 1.88824 2.76765 2.28844 2.37835C2.69527 1.98259 3.28417 1.74292 3.9217 1.74292H118.078C118.716 1.74292 119.305 1.98258 119.712 2.3783C120.111 2.76929 120.291 3.27309 120.242 3.7589L120.242 3.75921M1.75793 3.7589L120.242 3.75921M120.242 3.75921L109.964 106.612M120.242 3.75921L109.964 106.612M109.964 106.612C109.891 107.33 109.317 108.007 108.415 108.237L109.964 106.612ZM60.3644 120.166L13.5914 108.238H108.415L61.6006 120.166C61.6003 120.166 61.6 120.166 61.5997 120.167C61.3991 120.217 61.1889 120.243 60.9825 120.243C60.7761 120.243 60.566 120.217 60.3653 120.167C60.365 120.166 60.3647 120.166 60.3644 120.166ZM23.1983 70.7101L22.2679 70.4797V71.4381V84.3381V84.9251L22.8376 85.0662L54.9763 93.0253L55.9066 93.2557V92.2973V24.4712V23.7212H55.1566H43.4698H42.7198V24.4712V75.5458L23.1983 70.7101ZM99.8865 53.2388L99.9765 52.305L99.0457 52.4228L79.2802 54.9246V35.656H100.896H101.577L101.642 34.9781L102.65 24.5433L102.73 23.7212H101.904H66.8434H66.0934V24.4712V68.819V69.6932L66.9575 69.5603L86.4772 66.5576L85.8575 74.8569L66.6647 79.5663L66.0934 79.7064V80.2947V92.2973V93.2537L67.0223 93.0256L96.2393 85.8517L96.756 85.7249L96.807 85.1953L99.8865 53.2388Z" stroke="#E8C676" stroke-opacity="0.7" stroke-width="1.5" shape-rendering="crispEdges"/>
</g>
<defs>
<filter id="filter0_d_35_99" x="0" y="-0.00708008" width="130" height="130" filterUnits="userSpaceOnUse" color-interpolation-filters="sRGB">
<feFlood flood-opacity="0" result="BackgroundImageFix"/>
<feColorMatrix in="SourceAlpha" type="matrix" values="0 0 0 0 0 0 0 0 0 0 0 0 0 0 0 0 0 0 127 0" result="hardAlpha"/>
<feOffset dx="4" dy="4"/>
<feGaussianBlur stdDeviation="2.5"/>
<feComposite in2="hardAlpha" operator="out"/>
<feColorMatrix type="matrix" values="0 0 0 0 0.0117647 0 0 0 0 0.027451 0 0 0 0 0.117647 0 0 0 0.7 0"/>
<feBlend mode="normal" in2="BackgroundImageFix" result="effect1_dropShadow_35_99"/>
<feBlend mode="normal" in="SourceGraphic" in2="effect1_dropShadow_35_99" result="shape"/>
</filter>
</defs>
</svg>
